<svg id="Layer_1" data-name="Layer 1" xmlns="http://www.w3.org/2000/svg" xmlns:xlink="http://www.w3.org/1999/xlink" viewBox="0 0 512 512"><defs><pattern id="USGS_8_Sewage_Disposal" data-name="USGS 8 Sewage Disposal" width="72" height="74.8" patternTransform="translate(-153.84 630.2) scale(2.7 2.7)" patternUnits="userSpaceOnUse" viewBox="0 0 72 74.8"><rect width="72" height="74.8" fill="none"/><line y1="73.95" x2="72" y2="73.95" fill="none" stroke="#1f191a" stroke-linecap="square" stroke-width="0.3"/><line y1="72.25" x2="72" y2="72.25" fill="none" stroke="#1f191a" stroke-linecap="square" stroke-width="0.3"/><line y1="70.55" x2="72" y2="70.55" fill="none" stroke="#1f191a" stroke-linecap="square" stroke-width="0.3"/><line y1="68.85" x2="72" y2="68.85" fill="none" stroke="#1f191a" stroke-linecap="square" stroke-width="0.3"/><line y1="67.15" x2="72" y2="67.15" fill="none" stroke="#1f191a" stroke-linecap="square" stroke-width="0.3"/><line y1="65.45" x2="72" y2="65.45" fill="none" stroke="#1f191a" stroke-linecap="square" stroke-width="0.3"/><line y1="63.75" x2="72" y2="63.75" fill="none" stroke="#1f191a" stroke-linecap="square" stroke-width="0.3"/><line y1="62.05" x2="72" y2="62.05" fill="none" stroke="#1f191a" stroke-linecap="square" stroke-width="0.3"/><line y1="60.35" x2="72" y2="60.35" fill="none" stroke="#1f191a" stroke-linecap="square" stroke-width="0.3"/><line y1="58.65" x2="72" y2="58.65" fill="none" stroke="#1f191a" stroke-linecap="square" stroke-width="0.3"/><line y1="56.95" x2="72" y2="56.95" fill="none" stroke="#1f191a" stroke-linecap="square" stroke-width="0.3"/><line y1="55.25" x2="72" y2="55.25" fill="none" stroke="#1f191a" stroke-linecap="square" stroke-width="0.3"/><line y1="53.55" x2="72" y2="53.55" fill="none" stroke="#1f191a" stroke-linecap="square" stroke-width="0.3"/><line y1="51.85" x2="72" y2="51.85" fill="none" stroke="#1f191a" stroke-linecap="square" stroke-width="0.3"/><line y1="50.15" x2="72" y2="50.15" fill="none" stroke="#1f191a" stroke-linecap="square" stroke-width="0.3"/><line y1="48.45" x2="72" y2="48.45" fill="none" stroke="#1f191a" stroke-linecap="square" stroke-width="0.3"/><line y1="46.75" x2="72" y2="46.75" fill="none" stroke="#1f191a" stroke-linecap="square" stroke-width="0.3"/><line y1="45.05" x2="72" y2="45.05" fill="none" stroke="#1f191a" stroke-linecap="square" stroke-width="0.3"/><line y1="43.35" x2="72" y2="43.35" fill="none" stroke="#1f191a" stroke-linecap="square" stroke-width="0.3"/><line y1="41.65" x2="72" y2="41.65" fill="none" stroke="#1f191a" stroke-linecap="square" stroke-width="0.3"/><line y1="39.95" x2="72" y2="39.95" fill="none" stroke="#1f191a" stroke-linecap="square" stroke-width="0.3"/><line y1="38.25" x2="72" y2="38.25" fill="none" stroke="#1f191a" stroke-linecap="square" stroke-width="0.3"/><line y1="36.55" x2="72" y2="36.55" fill="none" stroke="#1f191a" stroke-linecap="square" stroke-width="0.3"/><line y1="34.85" x2="72" y2="34.85" fill="none" stroke="#1f191a" stroke-linecap="square" stroke-width="0.3"/><line y1="33.15" x2="72" y2="33.15" fill="none" stroke="#1f191a" stroke-linecap="square" stroke-width="0.3"/><line y1="31.45" x2="72" y2="31.45" fill="none" stroke="#1f191a" stroke-linecap="square" stroke-width="0.3"/><line y1="29.75" x2="72" y2="29.75" fill="none" stroke="#1f191a" stroke-linecap="square" stroke-width="0.3"/><line y1="28.05" x2="72" y2="28.05" fill="none" stroke="#1f191a" stroke-linecap="square" stroke-width="0.3"/><line y1="26.35" x2="72" y2="26.35" fill="none" stroke="#1f191a" stroke-linecap="square" stroke-width="0.3"/><line y1="24.65" x2="72" y2="24.65" fill="none" stroke="#1f191a" stroke-linecap="square" stroke-width="0.3"/><line y1="22.95" x2="72" y2="22.95" fill="none" stroke="#1f191a" stroke-linecap="square" stroke-width="0.3"/><line y1="21.25" x2="72" y2="21.25" fill="none" stroke="#1f191a" stroke-linecap="square" stroke-width="0.3"/><line y1="19.55" x2="72" y2="19.55" fill="none" stroke="#1f191a" stroke-linecap="square" stroke-width="0.3"/><line y1="17.85" x2="72" y2="17.85" fill="none" stroke="#1f191a" stroke-linecap="square" stroke-width="0.3"/><line y1="16.15" x2="72" y2="16.15" fill="none" stroke="#1f191a" stroke-linecap="square" stroke-width="0.3"/><line y1="14.45" x2="72" y2="14.45" fill="none" stroke="#1f191a" stroke-linecap="square" stroke-width="0.3"/><line y1="12.75" x2="72" y2="12.75" fill="none" stroke="#1f191a" stroke-linecap="square" stroke-width="0.3"/><line y1="11.05" x2="72" y2="11.05" fill="none" stroke="#1f191a" stroke-linecap="square" stroke-width="0.3"/><line y1="9.35" x2="72" y2="9.35" fill="none" stroke="#1f191a" stroke-linecap="square" stroke-width="0.3"/><line y1="7.65" x2="72" y2="7.65" fill="none" stroke="#1f191a" stroke-linecap="square" stroke-width="0.3"/><line y1="5.95" x2="72" y2="5.95" fill="none" stroke="#1f191a" stroke-linecap="square" stroke-width="0.3"/><line y1="4.25" x2="72" y2="4.25" fill="none" stroke="#1f191a" stroke-linecap="square" stroke-width="0.3"/><line y1="2.55" x2="72" y2="2.55" fill="none" stroke="#1f191a" stroke-linecap="square" stroke-width="0.3"/><line y1="0.85" x2="72" y2="0.85" fill="none" stroke="#1f191a" stroke-linecap="square" stroke-width="0.3"/><line x1="-21.5" y1="7.65" x2="-10.25" y2="7.65" fill="none" stroke="#1f191a" stroke-linecap="square" stroke-width="0.3"/></pattern></defs><title>behance-other</title><path d="M511.3,281.7c0,125.76-102,227.58-227.81,227.58S55.67,407.46,55.67,281.7c0-126.37,102.14-228.21,227.82-228.21S511.3,155.33,511.3,281.7Z" fill="url(#USGS_8_Sewage_Disposal)"/><path d="M494.39,264.78c0,125.76-102,227.58-227.81,227.58S38.76,390.53,38.76,264.78C38.76,138.4,140.9,36.57,266.58,36.57S494.39,138.4,494.39,264.78Z" fill="url(#USGS_8_Sewage_Disposal)"/><path d="M469,245.73c0,125.76-102,227.58-227.81,227.58S13.38,371.49,13.38,245.73c0-126.37,102.14-228.21,227.82-228.21S469,119.36,469,245.73Z" fill="#1f191a"/><path d="M462.67,235.16c0,125.76-102,227.58-227.81,227.58S7,360.91,7,235.16C7,108.78,109.18,6.95,234.86,6.95S462.67,108.78,462.67,235.16Z" fill="#333"/><path d="M469,245.73c0,125.76-102,227.58-227.81,227.58S13.38,371.49,13.38,245.73c0-126.37,102.14-228.21,227.82-228.21S469,119.36,469,245.73Z" fill="none" stroke="#1f191a" stroke-width="2.12"/><path d="M458.44,233c0,125.76-102,227.58-227.81,227.58S2.81,358.8,2.81,233C2.81,106.67,105,4.83,230.63,4.83S458.44,106.67,458.44,233Z" fill="#fff"/><path d="M458.44,233c0,125.76-102,227.58-227.81,227.58S2.81,358.8,2.81,233C2.81,106.67,105,4.83,230.63,4.83S458.44,106.67,458.44,233Z" fill="#fff"/><path d="M458.44,233c0,125.76-102,227.58-227.81,227.58S2.81,358.8,2.81,233C2.81,106.67,105,4.83,230.63,4.83S458.44,106.67,458.44,233Z" fill="none" stroke="#1f191a" stroke-width="4.23"/><path d="M104.7,154h61.85c12.27,0,21.28.5,27.53,1.39a39.89,39.89,0,0,1,16,6.76c4.76,2.76,8.77,7.52,12,12.9a35.57,35.57,0,0,1,4.77,18.16A34.58,34.58,0,0,1,221,212.75a34.21,34.21,0,0,1-15.91,13.9,41.75,41.75,0,0,1,21.79,13.9,38.4,38.4,0,0,1,7.5,23.55,45.51,45.51,0,0,1-5,20.55A37.8,37.8,0,0,1,216,300.43c-5.64,4.26-12.64,6.77-20.91,7.64-5,.37-17.65.76-37.8.76H104.7ZM136,179.68v36.19h20.52a197,197,0,0,0,22.53-1,18.83,18.83,0,0,0,12.64-5.5c3.14-2.76,4.64-7,4.64-12a19,19,0,0,0-3.76-11.77c-2.76-3-6.77-4.76-12-5.39-3.13,0-12-.5-26.53-.5Zm0,61.63v41.58h28.79a196.36,196.36,0,0,0,21.41-.87,18.75,18.75,0,0,0,11.64-6.27c2.63-3.37,4.26-7.52,4.26-13.4a23.8,23.8,0,0,0-3.26-11.77,25.58,25.58,0,0,0-9.88-7.13c-4.38-1.13-13.65-2.13-27.92-2.13Z" fill="#060606"/><path d="M325.64,273.25l29.42,5c-3.64,10.89-9.52,19.29-17.91,24.68-8.14,5.89-18.39,8.52-30.92,8.52-19.41,0-33.93-6.39-43.31-18.92-7.25-10.52-10.9-23-10.9-39.08,0-18.41,4.88-33.07,14.39-43.58,9.9-10.53,22-16,36.93-16,16.78,0,29.92,6,39.68,16.9s14.27,28.18,13.77,50.6H282.44c.26,8.9,2.51,15.79,7,20.68,4.76,5,10.4,7.13,17.28,7.13a18.59,18.59,0,0,0,11.77-3.76C321.63,282.89,323.88,279.14,325.64,273.25Zm1.63-30.18c-.26-8.4-2.51-15.16-6.77-19.29A19,19,0,0,0,305.23,217c-6.51,0-11.89,2-16,7.14-4.26,4.51-6.38,10.9-6.38,18.92Z" fill="#060606"/><path d="M272.69,184.31V158H338.4v26.29Z" fill="#060606"/></svg>